# xmcd
#
# Track frame offsets:
#	150
#	14688
#	27026
#	45524
#	62234
#	80789
#	96200
#	117546
#	131609
#	150854
#	167264
#	180359
#	196844
#	209321
#	228772
#	242009
#
# Disc length: 3508 seconds
# Revision: 0
# Processed by: cddbd v1.5.2PL0 Copyright (c) Steve Scherf et al.
# Submitted via: dBpowerAMP V12.0
#
DISCID=c30db210
DTITLE=Saffire: The Uppity Blues Women - Havin' The Last Word
DYEAR=2008
DGENRE=Blues
TTITLE0=Going Down The River
TTITLE1=Nothin' In Your House
TTITLE2=Kitchen Man
TTITLE3=Somebody's Gotta Give
TTITLE4=Bald Headed Blues
TTITLE5=Since You Been Gone
TTITLE6=Blue Lullaby
TTITLE7=Travelin' At The Speed Of Love
TTITLE8=I Can Do Bad All By Myself
TTITLE9=Too Much Butt
TTITLE10=Haste Makes Waste
TTITLE11=Locked Up
TTITLE12=Walkin' Home To You
TTITLE13=Bald Eagle
TTITLE14=I'm Growing Older
TTITLE15=The Bad Times
EXTD=
EXTT0=
EXTT1=
EXTT2=
EXTT3=
EXTT4=
EXTT5=
EXTT6=
EXTT7=
EXTT8=
EXTT9=
EXTT10=
EXTT11=
EXTT12=
EXTT13=
EXTT14=
EXTT15=
PLAYORDER=
